<?xml version="1.0" encoding="utf-8"?>
<!-- Generator: Adobe Illustrator 25.1.0, SVG Export Plug-In . SVG Version: 6.00 Build 0)  -->
<svg version="1.1" id="Слой_1" xmlns="http://www.w3.org/2000/svg" xmlns:xlink="http://www.w3.org/1999/xlink" x="0px" y="0px"
	 viewBox="0 0 1670.46 1527.73" style="enable-background:new 0 0 1670.46 1527.73;" xml:space="preserve">
<style type="text/css">
	.st0{fill:#0F46C5;}
	.st1{fill:#BCBDC0;}
	.st2{fill:#747474;}
</style>
<g>
	<path class="st0" d="M1373.47,789.33V87.48l-457.59,457.6C1083.76,598.67,1238.39,682.17,1373.47,789.33z"/>
	<path class="st0" d="M1283.31,868.25c-135.86-104.21-292.38-182.74-462.26-228.34l-97.52,97.52
		c176.3,36.34,338.73,110.98,478.35,214.72L1283.31,868.25z"/>
	<path class="st0" d="M1105.2,1027.51c-140.86-98.3-305.67-164.55-483.82-187.94L512.11,948.85c124.5,5.17,243.3,32.73,352.54,78.66
		H1105.2z"/>
	<polygon class="st0" points="1373.47,939.56 1373.47,1027.51 1287.29,1027.51 	"/>
	<polygon class="st0" points="629.24,1151.88 629.24,1295.53 488.46,1295.53 	"/>
	<polygon class="st1" points="1379.96,1047.83 1136.11,1047.83 1136.11,1075.52 1244.2,1075.52 1244.2,1295.53 1271.88,1295.53 
		1271.88,1075.52 1379.96,1075.52 	"/>
	<polygon class="st1" points="165.43,1295.53 203.26,1295.53 387.02,1120.57 387.02,1295.53 414.72,1295.53 414.72,1051.68 	"/>
	<polygon class="st1" points="422.94,1295.53 460.78,1295.53 649.8,1115.57 649.8,1295.53 677.49,1295.53 677.49,1047.83 	"/>
	<polygon class="st1" points="1083.29,1071.66 1083.29,1071.66 894.9,1233.84 894.9,1047.83 867.2,1047.83 867.2,1159.76 
		698.85,1159.76 698.85,1187.45 867.2,1187.45 867.2,1295.53 1083.29,1111.39 1083.29,1295.53 1110.98,1295.53 1110.98,1047.83 	"/>
	<g>
		<g>
			<path class="st2" d="M173.67,1371.12l34.65-52.36h8.78v65.08h-8.78v-52.73l-34.65,52.73h-8.78v-65.08h8.78V1371.12z"/>
			<path class="st2" d="M309.21,1353.22v30.62h-8.78v-65.08h8.78v27.09h32.73v-27.09h8.77v65.08h-8.77v-30.62H309.21z"/>
			<path class="st2" d="M448.51,1326.12h-21.15v-7.37h51.07v7.37h-21.14v57.72h-8.77V1326.12z"/>
			<path class="st2" d="M563.87,1346.55h34.14v7.37h-34.14v22.55h38.7v7.37H555.1v-65.08h46.41v7.37h-37.63V1346.55z"/>
			<path class="st2" d="M688.35,1326.12v57.72h-8.78v-65.08h41.5v7.37H688.35z"/>
			<path class="st2" d="M797.72,1318.76h26.51c14.74,0,22.11,6.22,22.11,18.67c0,2.96-0.37,5.65-1.11,8.08
				c-0.75,2.43-1.99,4.57-3.73,6.43c-1.74,1.86-4.11,3.31-7.11,4.37c-3.01,1.05-6.65,1.58-10.94,1.58h-16.94v25.96h-8.78V1318.76z
				 M806.51,1326.12v24.39h15.97c5.44,0,9.28-1.14,11.53-3.43c2.25-2.29,3.38-5.45,3.38-9.48c0-4.12-1.29-7.07-3.84-8.83
				c-2.55-1.76-6.24-2.64-11.07-2.64H806.51z"/>
			<path class="st2" d="M932.05,1367.01l-6.13,16.83h-9.39l24.65-65.08h9.39l24.65,65.08h-9.38l-6.23-16.83H932.05z M934.41,1359.64
				h22.81l-11.4-32.04L934.41,1359.64z"/>
			<path class="st2" d="M1059.06,1376.47h32.99v-57.72h8.77v57.72h9.12l-0.7,22.1h-7.62v-14.74h-51.34v-65.08h8.77V1376.47z"/>
			<path class="st2" d="M1195.37,1371.12l34.65-52.36h8.8v65.08h-8.8v-52.73l-34.65,52.73h-8.77v-65.08h8.77V1371.12z"/>
			<path class="st2" d="M1363.63,1357.97h-14.82l-15.9,25.87h-10.79l17.65-26.75c-1.7-0.19-3.46-0.55-5.29-1.09
				c-1.82-0.54-3.68-1.48-5.6-2.81c-1.91-1.34-3.51-3.24-4.82-5.72c-1.3-2.47-1.95-5.56-1.95-9.24c0-3.51,0.67-6.72,2.01-9.63
				c1.34-2.9,3.68-5.27,7.02-7.1c3.33-1.82,7.81-2.74,13.41-2.74h27.84v65.08h-8.78V1357.97z M1363.63,1326.12h-18.33
				c-5.45,0-9.19,1.25-11.2,3.75c-2.01,2.51-3.02,5.32-3.02,8.43c0,3.64,1.15,6.6,3.49,8.88c2.31,2.28,6.3,3.41,11.96,3.41h17.11
				V1326.12z"/>
		</g>
	</g>
</g>
</svg>
